<?xml version="1.0" encoding="UTF-8"?><svg id="Layer_1" xmlns="http://www.w3.org/2000/svg" viewBox="0 0 48 48"><defs><style>.cls-1{fill:#fff;}</style></defs><path id="path815" class="cls-1" d="M37.88,11.23c-2.59-1.2-5.36-2.07-8.25-2.57-.36,.64-.77,1.49-1.06,2.17-3.08-.46-6.13-.46-9.15,0-.29-.68-.71-1.54-1.07-2.17-2.9,.5-5.67,1.37-8.26,2.58-5.22,7.82-6.64,15.44-5.93,22.96,3.46,2.56,6.82,4.12,10.12,5.14,.81-1.11,1.54-2.29,2.17-3.54-1.19-.45-2.33-1-3.41-1.65,.29-.21,.57-.43,.84-.66,6.58,3.05,13.73,3.05,20.24,0,.27,.23,.55,.45,.84,.66-1.08,.65-2.23,1.2-3.42,1.65,.63,1.24,1.35,2.43,2.17,3.54,3.3-1.02,6.66-2.58,10.13-5.14,.83-8.71-1.42-16.27-5.95-22.96ZM17.36,29.57c-1.98,0-3.6-1.83-3.6-4.05s1.59-4.06,3.6-4.06,3.63,1.83,3.6,4.06c0,2.23-1.59,4.05-3.6,4.05Zm13.29,0c-1.98,0-3.6-1.83-3.6-4.05s1.59-4.06,3.6-4.06,3.63,1.83,3.6,4.06c0,2.23-1.59,4.05-3.6,4.05Z"/></svg>